<svg width="50" height="50" viewBox="0 0 50 50" fill="none" xmlns="http://www.w3.org/2000/svg">
<g clip-path="url(#clip0_507_49)">
<path d="M38.8898 13.8891C38.8898 21.5595 32.6711 27.7775 25.0001 27.7775C17.3297 27.7775 11.1113 21.5595 11.1113 13.8891C11.1113 6.21865 17.3297 0 25.0001 0C32.6711 0 38.8898 6.21875 38.8898 13.8891Z" fill="#CD5A6D"/>
<path d="M38.8898 36.1105C38.8898 43.7815 32.6711 50.0002 25.0001 50.0002C17.3297 50.0002 11.1113 43.7815 11.1113 36.1105C11.1113 28.4407 17.3297 22.2227 25.0001 22.2227C32.6711 22.2227 38.8898 28.4407 38.8898 36.1105Z" fill="#C04E5C"/>
<path d="M13.8888 11.1104C21.5595 11.1104 27.7775 17.3284 27.7775 24.9994C27.7775 32.6698 21.5595 38.8885 13.8888 38.8885C6.21875 38.8886 0 32.6698 0 24.9994C0 17.3284 6.21875 11.1104 13.8888 11.1104Z" fill="#CD5A6D"/>
<path d="M36.1105 11.1104C43.7814 11.1104 50.0002 17.3284 50.0002 24.9994C50.0002 32.6698 43.7814 38.8885 36.1105 38.8885C28.4407 38.8885 22.2227 32.6697 22.2227 24.9994C22.2227 17.3284 28.4407 11.1104 36.1105 11.1104Z" fill="#C04E5C"/>
<path d="M40.0492 38.3198C40.2702 37.0352 40.304 35.6975 40.1375 34.3346C39.2109 26.7757 32.3775 21.3884 24.8286 22.2265C24.8868 22.2265 24.9413 22.2221 25.0002 22.2221C32.6725 22.2221 38.8874 28.4428 38.8874 36.1094C38.8874 36.9763 38.8092 37.8246 38.657 38.6484L40.0492 38.3198Z" fill="#974C5C"/>
<path d="M38.647 11.3395C37.8288 11.1881 36.9806 11.1098 36.1129 11.1098C28.4407 11.1098 22.2207 17.3297 22.2207 25.002C22.2207 25.0553 22.2257 25.114 22.2257 25.1729C21.3918 17.6239 26.7799 10.7855 34.3332 9.85965C35.6966 9.69315 37.0344 9.72694 38.3184 9.94793L38.647 11.3395Z" fill="#AA5C6D"/>
<path d="M11.3428 11.3501C11.191 12.1727 11.1127 13.0215 11.1127 13.8892C11.1127 21.5602 17.3277 27.7764 24.9999 27.7764C25.0588 27.7764 25.1132 27.7764 25.1715 27.7764C17.6225 28.6096 10.7891 23.2222 9.86261 15.6632C9.69581 14.3004 9.73028 12.9626 9.9506 11.678L11.3428 11.3501Z" fill="#AA5C6D"/>
<path d="M11.6813 40.0503C12.966 40.2713 14.3034 40.3051 15.6662 40.1385C23.2201 39.212 28.6081 32.3736 27.7743 24.8296C27.7743 24.8834 27.7793 24.9423 27.7793 25.0018C27.7793 32.6677 21.5594 38.889 13.8871 38.889C13.0188 38.889 12.1715 38.8102 11.353 38.6587L11.6813 40.0503Z" fill="#974C5C"/>
<path d="M32.1898 25.0008C32.1898 28.9709 28.9703 32.1898 25.0002 32.1898C21.0295 32.1898 17.8105 28.9709 17.8105 25.0008C17.8105 21.0301 21.0295 17.8105 25.0002 17.8105C28.9703 17.8104 32.1898 21.03 32.1898 25.0008Z" fill="#CDBC72"/>
<path d="M29.6556 19.5273C30.7241 20.7819 31.3721 22.4058 31.3721 24.1836C31.3721 28.1537 28.1531 31.3726 24.1831 31.3726C22.4059 31.3726 20.7813 30.7247 19.5269 29.6561C20.8458 31.2041 22.8064 32.1895 25 32.1895C28.9701 32.1895 32.1896 28.9706 32.1896 25.0005C32.1896 22.8069 31.2043 20.8463 29.6556 19.5273Z" fill="#B8A65C"/>
</g>
<defs>
<clipPath id="clip0_507_49">
<rect width="50" height="50" fill="white"/>
</clipPath>
</defs>
</svg>
